<svg width="35" height="36" viewBox="0 0 35 36" fill="none" xmlns="http://www.w3.org/2000/svg">
<path d="M1.25 0.5C0.918479 0.5 0.600537 0.631696 0.366117 0.866117C0.131696 1.10054 0 1.41848 0 1.75V11.75C0 12.0815 0.131696 12.3995 0.366117 12.6339C0.600537 12.8683 0.918479 13 1.25 13C1.58152 13 1.89946 12.8683 2.13388 12.6339C2.3683 12.3995 2.5 12.0815 2.5 11.75V4.7675L10.365 12.635C10.5997 12.8697 10.9181 13.0016 11.25 13.0016C11.5819 13.0016 11.9003 12.8697 12.135 12.635C12.3697 12.4003 12.5016 12.0819 12.5016 11.75C12.5016 11.4181 12.3697 11.0997 12.135 10.865L4.2675 3H11.25C11.5815 3 11.8995 2.8683 12.1339 2.63388C12.3683 2.39946 12.5 2.08152 12.5 1.75C12.5 1.41848 12.3683 1.10054 12.1339 0.866117C11.8995 0.631696 11.5815 0.5 11.25 0.5H1.25ZM1.25 35.5C0.918479 35.5 0.600537 35.3683 0.366117 35.1339C0.131696 34.8995 0 34.5815 0 34.25V24.25C0 23.9185 0.131696 23.6005 0.366117 23.3661C0.600537 23.1317 0.918479 23 1.25 23C1.58152 23 1.89946 23.1317 2.13388 23.3661C2.3683 23.6005 2.5 23.9185 2.5 24.25V31.2325L10.365 23.365C10.5997 23.1303 10.9181 22.9984 11.25 22.9984C11.5819 22.9984 11.9003 23.1303 12.135 23.365C12.3697 23.5997 12.5016 23.9181 12.5016 24.25C12.5016 24.5819 12.3697 24.9003 12.135 25.135L4.2675 33H11.25C11.5815 33 11.8995 33.1317 12.1339 33.3661C12.3683 33.6005 12.5 33.9185 12.5 34.25C12.5 34.5815 12.3683 34.8995 12.1339 35.1339C11.8995 35.3683 11.5815 35.5 11.25 35.5H1.25ZM35 1.75C35 1.41848 34.8683 1.10054 34.6339 0.866117C34.3995 0.631696 34.0815 0.5 33.75 0.5H23.75C23.4185 0.5 23.1005 0.631696 22.8661 0.866117C22.6317 1.10054 22.5 1.41848 22.5 1.75C22.5 2.08152 22.6317 2.39946 22.8661 2.63388C23.1005 2.8683 23.4185 3 23.75 3H30.7325L22.865 10.865C22.6303 11.0997 22.4984 11.4181 22.4984 11.75C22.4984 12.0819 22.6303 12.4003 22.865 12.635C23.0997 12.8697 23.4181 13.0016 23.75 13.0016C24.0819 13.0016 24.4003 12.8697 24.635 12.635L32.5 4.7675V11.75C32.5 12.0815 32.6317 12.3995 32.8661 12.6339C33.1005 12.8683 33.4185 13 33.75 13C34.0815 13 34.3995 12.8683 34.6339 12.6339C34.8683 12.3995 35 12.0815 35 11.75V1.75ZM33.75 35.5C34.0815 35.5 34.3995 35.3683 34.6339 35.1339C34.8683 34.8995 35 34.5815 35 34.25V24.25C35 23.9185 34.8683 23.6005 34.6339 23.3661C34.3995 23.1317 34.0815 23 33.75 23C33.4185 23 33.1005 23.1317 32.8661 23.3661C32.6317 23.6005 32.5 23.9185 32.5 24.25V31.2325L24.635 23.365C24.4003 23.1303 24.0819 22.9984 23.75 22.9984C23.4181 22.9984 23.0997 23.1303 22.865 23.365C22.6303 23.5997 22.4984 23.9181 22.4984 24.25C22.4984 24.5819 22.6303 24.9003 22.865 25.135L30.7325 33H23.75C23.4185 33 23.1005 33.1317 22.8661 33.3661C22.6317 33.6005 22.5 33.9185 22.5 34.25C22.5 34.5815 22.6317 34.8995 22.8661 35.1339C23.1005 35.3683 23.4185 35.5 23.75 35.5H33.75Z" fill="#3C3C3C"/>
</svg>
