<svg width="87" height="40" viewBox="0 0 87 40" fill="none" xmlns="http://www.w3.org/2000/svg">
<path d="M4.64 8.64H11.38V11.16H4.64V8.64ZM4.88 14.4H12.5V17H1.66V3H12.24V5.6H4.88V14.4ZM19.0827 17L13.0427 3H16.5427L21.8227 15.4H19.7627L25.1227 3H28.3427L22.2827 17H19.0827ZM27.2028 17L33.4428 3H36.6428L42.9028 17H39.5028L34.3828 4.64H35.6628L30.5228 17H27.2028ZM30.3228 14L31.1828 11.54H38.3828L39.2628 14H30.3228ZM8.42 37.24C7.31333 37.24 6.29333 37.0667 5.36 36.72C4.44 36.36 3.63333 35.8533 2.94 35.2C2.26 34.5467 1.72667 33.78 1.34 32.9C0.966667 32.02 0.78 31.0533 0.78 30C0.78 28.9467 0.966667 27.98 1.34 27.1C1.72667 26.22 2.26667 25.4533 2.96 24.8C3.65333 24.1467 4.46667 23.6467 5.4 23.3C6.33333 22.94 7.36 22.76 8.48 22.76C9.72 22.76 10.8333 22.9667 11.82 23.38C12.82 23.7933 13.66 24.3933 14.34 25.18L12.26 27.1C11.7533 26.5667 11.2 26.1733 10.6 25.92C10 25.6533 9.34667 25.52 8.64 25.52C7.96 25.52 7.34 25.6267 6.78 25.84C6.22 26.0533 5.73333 26.36 5.32 26.76C4.92 27.16 4.60667 27.6333 4.38 28.18C4.16667 28.7267 4.06 29.3333 4.06 30C4.06 30.6533 4.16667 31.2533 4.38 31.8C4.60667 32.3467 4.92 32.8267 5.32 33.24C5.73333 33.64 6.21333 33.9467 6.76 34.16C7.32 34.3733 7.93333 34.48 8.6 34.48C9.24 34.48 9.86 34.38 10.46 34.18C11.0733 33.9667 11.6667 33.6133 12.24 33.12L14.08 35.46C13.32 36.0333 12.4333 36.4733 11.42 36.78C10.42 37.0867 9.42 37.24 8.42 37.24ZM11.12 35.04V29.78H14.08V35.46L11.12 35.04ZM17.0897 37V23H20.3297V34.36H27.3497V37H17.0897ZM35.7256 37.24C34.619 37.24 33.5923 37.06 32.6456 36.7C31.7123 36.34 30.899 35.8333 30.2056 35.18C29.5256 34.5267 28.9923 33.76 28.6056 32.88C28.2323 32 28.0456 31.04 28.0456 30C28.0456 28.96 28.2323 28 28.6056 27.12C28.9923 26.24 29.5323 25.4733 30.2256 24.82C30.919 24.1667 31.7323 23.66 32.6656 23.3C33.599 22.94 34.6123 22.76 35.7056 22.76C36.8123 22.76 37.8256 22.94 38.7456 23.3C39.679 23.66 40.4856 24.1667 41.1656 24.82C41.859 25.4733 42.399 26.24 42.7856 27.12C43.1723 27.9867 43.3656 28.9467 43.3656 30C43.3656 31.04 43.1723 32.0067 42.7856 32.9C42.399 33.78 41.859 34.5467 41.1656 35.2C40.4856 35.84 39.679 36.34 38.7456 36.7C37.8256 37.06 36.819 37.24 35.7256 37.24ZM35.7056 34.48C36.3323 34.48 36.9056 34.3733 37.4256 34.16C37.959 33.9467 38.4256 33.64 38.8256 33.24C39.2256 32.84 39.5323 32.3667 39.7456 31.82C39.9723 31.2733 40.0856 30.6667 40.0856 30C40.0856 29.3333 39.9723 28.7267 39.7456 28.18C39.5323 27.6333 39.2256 27.16 38.8256 26.76C38.439 26.36 37.979 26.0533 37.4456 25.84C36.9123 25.6267 36.3323 25.52 35.7056 25.52C35.079 25.52 34.499 25.6267 33.9656 25.84C33.4456 26.0533 32.9856 26.36 32.5856 26.76C32.1856 27.16 31.8723 27.6333 31.6456 28.18C31.4323 28.7267 31.3256 29.3333 31.3256 30C31.3256 30.6533 31.4323 31.26 31.6456 31.82C31.8723 32.3667 32.179 32.84 32.5656 33.24C32.9656 33.64 33.4323 33.9467 33.9656 34.16C34.499 34.3733 35.079 34.48 35.7056 34.48ZM45.8006 37V23H52.6406C54.4006 23 55.7206 23.3333 56.6006 24C57.494 24.6667 57.9406 25.5467 57.9406 26.64C57.9406 27.3733 57.7606 28.0133 57.4006 28.56C57.0406 29.0933 56.5473 29.5067 55.9206 29.8C55.294 30.0933 54.574 30.24 53.7606 30.24L54.1406 29.42C55.0206 29.42 55.8006 29.5667 56.4806 29.86C57.1606 30.14 57.6873 30.56 58.0606 31.12C58.4473 31.68 58.6406 32.3667 58.6406 33.18C58.6406 34.38 58.1673 35.32 57.2206 36C56.274 36.6667 54.8806 37 53.0406 37H45.8006ZM49.0206 34.56H52.8006C53.6406 34.56 54.274 34.4267 54.7006 34.16C55.1406 33.88 55.3606 33.44 55.3606 32.84C55.3606 32.2533 55.1406 31.82 54.7006 31.54C54.274 31.2467 53.6406 31.1 52.8006 31.1H48.7806V28.74H52.2406C53.0273 28.74 53.6273 28.6067 54.0406 28.34C54.4673 28.06 54.6806 27.64 54.6806 27.08C54.6806 26.5333 54.4673 26.1267 54.0406 25.86C53.6273 25.58 53.0273 25.44 52.2406 25.44H49.0206V34.56ZM59.2536 37L65.4936 23H68.6936L74.9536 37H71.5536L66.4336 24.64H67.7136L62.5736 37H59.2536ZM62.3736 34L63.2336 31.54H70.4336L71.3136 34H62.3736ZM76.4061 37V23H79.6461V34.36H86.6661V37H76.4061Z" fill="black"/>
</svg>
