<svg width="128" height="25" viewBox="0 0 128 25" fill="none" xmlns="http://www.w3.org/2000/svg">
<path d="M1.61444 18.628C1.45444 18.628 1.29444 18.6173 1.13444 18.596C0.974438 18.5747 0.798438 18.5427 0.606438 18.5L0.718438 17.076C0.889104 17.1187 1.05977 17.14 1.23044 17.14C1.69977 17.14 2.0731 16.9533 2.35044 16.58C2.62777 16.2067 2.83044 15.6413 2.95844 14.884C3.0971 14.1267 3.18777 13.172 3.23044 12.02L3.40644 7.3H11.2944V18.5H9.72644V8.276L10.1104 8.692H4.43044L4.78244 8.26L4.65444 11.972C4.62244 13.0813 4.54777 14.052 4.43044 14.884C4.3131 15.716 4.1371 16.4093 3.90244 16.964C3.66777 17.5187 3.36377 17.9347 2.99044 18.212C2.62777 18.4893 2.1691 18.628 1.61444 18.628ZM15.3271 18.5V10.02H16.8631V16.196L22.0631 10.02H23.4551V18.5H21.9191V12.324L16.7351 18.5H15.3271ZM30.9324 18.596C30.0684 18.596 29.2951 18.4093 28.6124 18.036C27.9404 17.6627 27.4124 17.1507 27.0284 16.5C26.6444 15.8493 26.4524 15.1027 26.4524 14.26C26.4524 13.4173 26.6444 12.6707 27.0284 12.02C27.4124 11.3693 27.9404 10.8627 28.6124 10.5C29.2951 10.1267 30.0684 9.94 30.9324 9.94C31.7004 9.94 32.3831 10.0947 32.9804 10.404C33.5884 10.7027 34.0578 11.1507 34.3884 11.748L33.2204 12.5C32.9431 12.084 32.6018 11.78 32.1964 11.588C31.8018 11.3853 31.3751 11.284 30.9164 11.284C30.3618 11.284 29.8658 11.4067 29.4284 11.652C28.9911 11.8973 28.6444 12.244 28.3884 12.692C28.1324 13.1293 28.0044 13.652 28.0044 14.26C28.0044 14.868 28.1324 15.396 28.3884 15.844C28.6444 16.292 28.9911 16.6387 29.4284 16.884C29.8658 17.1293 30.3618 17.252 30.9164 17.252C31.3751 17.252 31.8018 17.156 32.1964 16.964C32.6018 16.7613 32.9431 16.452 33.2204 16.036L34.3884 16.772C34.0578 17.3587 33.5884 17.812 32.9804 18.132C32.3831 18.4413 31.7004 18.596 30.9324 18.596ZM38.7477 18.5V10.964L39.1317 11.364H35.6437V10.02H43.3877V11.364H39.9157L40.2837 10.964V18.5H38.7477ZM50.9583 18.5V16.708L50.8783 16.372V13.316C50.8783 12.6653 50.6863 12.164 50.3023 11.812C49.929 11.4493 49.3636 11.268 48.6063 11.268C48.105 11.268 47.6143 11.3533 47.1343 11.524C46.6543 11.684 46.249 11.9027 45.9183 12.18L45.2783 11.028C45.7156 10.676 46.2383 10.4093 46.8463 10.228C47.465 10.036 48.1103 9.94 48.7823 9.94C49.945 9.94 50.841 10.2227 51.4703 10.788C52.0996 11.3533 52.4143 12.2173 52.4143 13.38V18.5H50.9583ZM48.1743 18.596C47.545 18.596 46.9903 18.4893 46.5103 18.276C46.041 18.0627 45.6783 17.7693 45.4223 17.396C45.1663 17.012 45.0383 16.58 45.0383 16.1C45.0383 15.6413 45.145 15.2253 45.3583 14.852C45.5823 14.4787 45.9396 14.18 46.4303 13.956C46.9316 13.732 47.6036 13.62 48.4463 13.62H51.1343V14.724H48.5103C47.7423 14.724 47.225 14.852 46.9583 15.108C46.6916 15.364 46.5583 15.6733 46.5583 16.036C46.5583 16.452 46.7236 16.788 47.0543 17.044C47.385 17.2893 47.8436 17.412 48.4303 17.412C49.0063 17.412 49.5076 17.284 49.9343 17.028C50.3716 16.772 50.6863 16.3987 50.8783 15.908L51.1823 16.964C50.9796 17.4653 50.6223 17.8653 50.1103 18.164C49.5983 18.452 48.953 18.596 48.1743 18.596ZM55.9802 18.5V10.02H57.5162V16.196L62.7162 10.02H64.1082V18.5H62.5722V12.324L57.3882 18.5H55.9802ZM59.9482 8.916C59.1695 8.916 58.5562 8.72933 58.1082 8.356C57.6709 7.972 57.4469 7.42267 57.4362 6.708H58.4762C58.4869 7.11333 58.6202 7.43333 58.8762 7.668C59.1429 7.90267 59.4949 8.02 59.9322 8.02C60.3695 8.02 60.7215 7.90267 60.9882 7.668C61.2549 7.43333 61.3935 7.11333 61.4042 6.708H62.4762C62.4655 7.42267 62.2362 7.972 61.7882 8.356C61.3402 8.72933 60.7269 8.916 59.9482 8.916Z" fill="black"/>
<path d="M97 12.25H101.688M127 12.25L115.75 1M127 12.25L115.75 23.5M127 12.25H107.312" stroke="#0E0E0E" stroke-width="1.85" stroke-linecap="round" stroke-linejoin="round"/>
</svg>
